<svg id="Layer_2_Image" data-name="Layer 2 Image" xmlns="http://www.w3.org/2000/svg" viewBox="0 0 446.71 446.71"><defs><style>.cls-1{fill:#c8a25f;}</style></defs><path class="cls-1" d="M398.85,0h-351A47.86,47.86,0,0,0,0,47.86v351a47.86,47.86,0,0,0,47.86,47.86H184.72V294.84H121.9V223.35h62.82V168.87c0-62,36.89-96.2,93.4-96.2,27.06,0,55.36,4.83,55.36,4.83v60.82H302.3c-30.72,0-40.31,19.07-40.31,38.62v46.41h68.59l-11,71.49H262V446.71H398.85a47.86,47.86,0,0,0,47.86-47.86v-351A47.86,47.86,0,0,0,398.85,0Z"/></svg>