<svg id="Layer_2_Image" data-name="Layer 2 Image" xmlns="http://www.w3.org/2000/svg" viewBox="0 0 446.26 446.71"><defs><style>.cls-1{fill:#ffffff;}</style></defs><path class="cls-1" d="M320.26,35a91.1,91.1,0,0,1,91,91V320.7a91.11,91.11,0,0,1-91,91H126a91.11,91.11,0,0,1-91-91V126a91.1,91.1,0,0,1,91-91H320.26m0-35H126A126,126,0,0,0,0,126V320.7a126,126,0,0,0,126,126H320.26a126,126,0,0,0,126-126V126a126,126,0,0,0-126-126Z"/><path class="cls-1" d="M223.13,143.41a79.95,79.95,0,1,1-79.94,79.94,80,80,0,0,1,79.94-79.94m0-35A114.95,114.95,0,1,0,338.07,223.35,114.94,114.94,0,0,0,223.13,108.41Z"/><circle class="cls-1" cx="343.17" cy="102.82" r="25.54"/></svg>