<svg id="Layer_2_Image" data-name="Layer 2 Image" xmlns="http://www.w3.org/2000/svg" viewBox="0 0 446.72 446.71"><defs><style>.cls-1{fill:#c8a25f;}</style></defs><path class="cls-1" d="M413.75,0H33A33,33,0,0,0,0,33V413.73a33,33,0,0,0,33,33H413.75a33,33,0,0,0,33-33V33A33,33,0,0,0,413.75,0ZM133.14,380.56H66V167.21h67.15ZM99.57,137.65c-21.39,0-38.72-16.28-38.72-38.55S78.18,60.54,99.57,60.54s38.72,16.29,38.72,38.56S121,137.65,99.57,137.65ZM380.73,380.72H313.58V264.19c0-34.38-14.62-45-33.47-45-19.93,0-39.46,15-39.46,45.84V380.72H173.49V167.38h64.58v29.55h.86c6.5-13.13,29.18-35.55,63.83-35.55,37.48,0,78,22.23,78,87.39Z"/></svg>