<svg id="Layer_2_Image" data-name="Layer 2 Image" xmlns="http://www.w3.org/2000/svg" viewBox="0 0 446.71 446.71"><defs><style>.cls-1{fill:#ffffff;}.cls-2{fill:none;stroke:#ffffff;stroke-miterlimit:10;stroke-width:25px;}</style></defs><path class="cls-1" d="M223.35,25A198.35,198.35,0,0,1,363.61,363.61,198.35,198.35,0,1,1,83.1,83.1,197,197,0,0,1,223.35,25m0-25C100,0,0,100,0,223.35S100,446.71,223.35,446.71s223.36-100,223.36-223.36S346.71,0,223.35,0Z"/><line class="cls-2" x1="223.35" y1="4.82" x2="223.35" y2="442.99"/><path class="cls-2" d="M201.09,427.43c-111.67-137.5-113.46-275.53,0-414.14"/><path class="cls-2" d="M245.62,16c113.46,138.6,111.67,276.64,0,414.14"/><path class="cls-2" d="M372.92,74.45C272.81,137,173.1,136,73.79,74.45"/><path class="cls-2" d="M372.92,372.26c-100.11-62.54-199.82-61.55-299.13,0"/><line class="cls-2" x1="436.68" y1="223.35" x2="10.03" y2="223.35"/></svg>